# xmcd CD database file generated by OrangeCD 5.2
#
# Track frame offsets:
#	150
#	43484
#	77139
#	93418
#	142545
#	187581
#
# Disc length: 3672 seconds
#
# Revision: 7
# Processed by: cddbd v1.5.2PL0 Copyright (c) Steve Scherf et al.
# Submitted via: OrangeCD 5.2
#
DISCID=400e5606
DTITLE=Ten Years After - 27-28 Feb 1970, Live At The Fillmore East, Disk 1
DYEAR=1970
DGENRE=Classic Rock
TTITLE0=Love Like A Man
TTITLE1=Good Morning Little Schoolgirl
TTITLE2=Working On The Road
TTITLE3=The Hobbit
TTITLE4=50000 Miles Beneath My Brain
TTITLE5=Skoobly-Oobly-Doobob, I Can't Keep From Crying Sometimes, Extension On 
TTITLE5=One Chord
EXTD=YEAR: 2001
EXTT0=
EXTT1=
EXTT2=
EXTT3=
EXTT4=
EXTT5=
PLAYORDER=
